<svg width="60" height="60" viewBox="0 0 60 60" fill="none" xmlns="http://www.w3.org/2000/svg">
<g filter="url(#filter0_bd_747_219)">
<rect x="10" y="10" width="40" height="40" rx="20" fill="#522481" fill-opacity="0.5" shape-rendering="crispEdges"/>
<rect x="11.5" y="11.5" width="37" height="37" rx="18.5" stroke="#6117AB" stroke-opacity="0.5" stroke-width="3" shape-rendering="crispEdges"/>
<path d="M33.0003 38.6695C32.8103 38.6695 32.6203 38.5995 32.4703 38.4495L25.9503 31.9295C24.8903 30.8695 24.8903 29.1295 25.9503 28.0695L32.4703 21.5495C32.7603 21.2595 33.2403 21.2595 33.5303 21.5495C33.8203 21.8395 33.8203 22.3195 33.5303 22.6095L27.0103 29.1295C26.5303 29.6095 26.5303 30.3895 27.0103 30.8695L33.5303 37.3895C33.8203 37.6795 33.8203 38.1595 33.5303 38.4495C33.3803 38.5895 33.1903 38.6695 33.0003 38.6695Z" fill="#E3DDDD"/>
</g>
<defs>
<filter id="filter0_bd_747_219" x="0" y="0" width="60" height="60" filterUnits="userSpaceOnUse" color-interpolation-filters="sRGB">
<feFlood flood-opacity="0" result="BackgroundImageFix"/>
<feGaussianBlur in="BackgroundImageFix" stdDeviation="2.5"/>
<feComposite in2="SourceAlpha" operator="in" result="effect1_backgroundBlur_747_219"/>
<feColorMatrix in="SourceAlpha" type="matrix" values="0 0 0 0 0 0 0 0 0 0 0 0 0 0 0 0 0 0 127 0" result="hardAlpha"/>
<feOffset/>
<feGaussianBlur stdDeviation="5"/>
<feComposite in2="hardAlpha" operator="out"/>
<feColorMatrix type="matrix" values="0 0 0 0 0.503871 0 0 0 0 0.179461 0 0 0 0 0.828281 0 0 0 1 0"/>
<feBlend mode="normal" in2="effect1_backgroundBlur_747_219" result="effect2_dropShadow_747_219"/>
<feBlend mode="normal" in="SourceGraphic" in2="effect2_dropShadow_747_219" result="shape"/>
</filter>
</defs>
</svg>
